<svg width="800" height="800" viewBox="0 0 800 800" fill="none" xmlns="http://www.w3.org/2000/svg">
<g clip-path="url(#clip0_3107_104188)">
<rect width="800" height="800" fill="#FF0000"/>
<path d="M100 0H700V800H100V0ZM411.25 653.75L405.625 545.875C405.543 544.101 405.86 542.331 406.553 540.696C407.246 539.061 408.297 537.602 409.628 536.426C410.959 535.251 412.537 534.389 414.246 533.904C415.954 533.419 417.75 533.324 419.5 533.625L526.875 552.5L512.375 512.5C511.787 510.908 511.711 509.173 512.16 507.536C512.608 505.9 513.558 504.444 514.875 503.375L632.5 408.125L606 395.75C604.21 394.904 602.791 393.434 602.008 391.616C601.226 389.798 601.134 387.756 601.75 385.875L625 314.375L557.25 328.75C555.415 329.133 553.503 328.869 551.84 328.003C550.177 327.137 548.864 325.723 548.125 324L535 293.125L482.125 349.875C480.916 351.15 479.326 351.999 477.594 352.294C475.862 352.59 474.08 352.315 472.517 351.513C470.954 350.71 469.693 349.422 468.924 347.842C468.154 346.262 467.918 344.476 468.25 342.75L493.75 211.25L452.875 234.875C451.915 235.437 450.85 235.797 449.746 235.931C448.642 236.065 447.522 235.971 446.456 235.655C445.389 235.338 444.399 234.806 443.547 234.092C442.694 233.377 441.998 232.495 441.5 231.5L400 150L358.5 231.5C358.002 232.495 357.306 233.377 356.453 234.092C355.601 234.806 354.611 235.338 353.544 235.655C352.478 235.971 351.358 236.065 350.254 235.931C349.15 235.797 348.085 235.437 347.125 234.875L306.25 211.25L331.75 342.75C332.082 344.476 331.846 346.262 331.076 347.842C330.307 349.422 329.046 350.71 327.483 351.513C325.92 352.315 324.138 352.59 322.406 352.294C320.674 351.999 319.084 351.15 317.875 349.875L265 293.125L251.875 324C251.136 325.723 249.823 327.137 248.16 328.003C246.497 328.869 244.585 329.133 242.75 328.75L175 314.375L198.25 385.875C198.866 387.756 198.774 389.798 197.992 391.616C197.209 393.434 195.79 394.904 194 395.75L167.5 408.125L285.125 503.375C286.442 504.444 287.392 505.9 287.84 507.536C288.289 509.173 288.213 510.908 287.625 512.5L273.125 552.5L380.5 533.625C382.25 533.324 384.046 533.419 385.754 533.904C387.463 534.389 389.041 535.251 390.372 536.426C391.703 537.602 392.754 539.061 393.447 540.696C394.14 542.331 394.457 544.101 394.375 545.875L388.75 653.75H411.25Z" fill="white"/>
</g>
<defs>
<clipPath id="clip0_3107_104188">
<rect width="800" height="800" fill="white"/>
</clipPath>
</defs>
</svg>
